<?xml version="1.0" encoding="UTF-8"?>
<svg version="1.1" xmlns="http://www.w3.org/2000/svg" width="1024" height="1024" viewBox="250 280 530 530">
<path d="M0 0 C10.966047568282193 7.590342579138849 19.142629530368936 20.75160805438577 22.25 33.625 C25.145973586536 50.40077492020367 21.628665013789146 64.5854472056468 13 79 C5.681220787484563 88.80289040508461 -3.662143387466813 96.34912120052985 -15 101 C-15.659999999999968 101 -16.319999999999936 101 -17 101 C-16.66999999999996 135.32 -16.340000000000032 169.64 -16 205 C-7.050365564942354 206.76164992714234 -7.050365564942354 206.76164992714234 -3.46875 204.8046875 C-2.8190624999999727 204.16789062500004 -2.1693749999999454 203.53109374999997 -1.5 202.875 C2.9593219567007054 198.86787137744204 7.556639438581556 195.3414817063814 12.4375 191.875 C14.000708966909883 190.75489501739276 15.56319389724797 189.63377897284704 17.125 188.51171875 C17.92292968749996 187.93856933593747 18.720859375000032 187.36541992187495 19.54296875 186.77490234375 C23.695938210671898 183.77489360179015 27.816828019975333 180.73164437393302 31.9375 177.6875 C38.60487482196163 172.76344202145833 45.28495805450302 167.85897417179785 52 163 C51.78343749999999 162.4005859375 51.56687499999998 161.80117187500002 51.34375 161.18359375 C47.07343962663276 147.28531508112394 46.364361752962736 129.1679176428745 53 116 C53.42410156250003 115.14792968749998 53.848203125000055 114.29585937500002 54.28515625 113.41796875 C62.5703676433277 98.39381104232223 74.8122676749008 89.13424799826214 91 84 C106.34525459079714 80.1012056739994 121.75293414489647 83.84585020325204 135.375 91.1875 C148.68555435374742 99.56755050222364 157.40038907435905 111.71549822343218 161 127 C161.16983398437492 127.62608154296879 161.33966796875006 128.25216308593747 161.5146484375 128.897216796875 C164.77954519693844 143.04236558412043 161.03782762668197 157.58765657476084 153.8125 169.8125 C144.39339345615804 183.3776235268151 131.37477585634292 192.22341830933453 115.12109375 195.59765625 C102.858797688354 197.1784028011258 90.90803079234274 196.56076967691376 79.9453125 190.23828125 C77.16014904699728 188.75302046120783 77.16014904699728 188.75302046120783 74.66796875 189.41796875 C70.67714493394601 191.78441625439518 67.01138337091038 194.51684543152646 63.3125 197.3125 C61.61510582090784 198.5788256486203 59.91717544460994 199.84443284453562 58.21875 201.109375 C57.35507812499998 201.75455078125003 56.491406249999955 202.39972656250006 55.6015625 203.064453125 C51.527896956283485 206.0952358230653 47.42447795956127 209.08399355644553 43.3125 212.0625 C42.2370593261719 212.8471765136719 42.2370593261719 212.8471765136719 41.139892578125 213.647705078125 C36.5461459663527 216.97343375171727 31.847686806105685 220.05696454996928 27 223 C31.128710546179605 227.49276518351803 35.74075988554159 230.70173907950914 40.8125 234.0625 C48.64727618309644 239.33224287986195 56.262131458832414 244.82473057353616 63.77734375 250.5390625 C64.623291015625 251.18149902343748 64.623291015625 251.18149902343748 65.486328125 251.8369140625 C66.76398619582824 252.81865003821372 68.02293465195555 253.82466429917508 69.27734375 254.8359375 C71.01598353682016 256.2449528697807 71.01598353682016 256.2449528697807 73.625 256 C77.4717449286286 254.8602237248508 80.73896819306105 253.1905043817237 84.2421875 251.25390625 C96.42695426299747 245.71380691441618 112.64856635419483 246.38264162773635 125 251 C140.06223023312214 257.1270089083887 150.67501724032127 266.29604197872857 158 281 C159.2698302326362 284.2962492101533 160.23247108710189 287.55563471319283 161 291 C161.2525756835937 291.9177319335938 161.2525756835937 291.9177319335938 161.51025390625 292.85400390625 C164.82085704481165 307.36058495707607 161.6766195920277 321.0440825616747 154.4765625 333.671875 C153.07861873414106 335.87604030278294 151.59884607502386 337.93833006115347 150 340 C149.55140625 340.61101562499994 149.10281250000003 341.22203125 148.640625 341.8515625 C141.81364819342548 350.55787561849684 132.26035454634848 355.39691253242086 122 359 C121.29746093749998 359.24749999999995 120.59492187499995 359.495 119.87109375 359.75 C105.0434023116427 363.92844925073086 89.18830613514092 361.03792993874185 75.875 353.9375 C63.27702750076742 346.0596121838572 56.59845783937453 336.3765236136096 51 323 C50.61843750000003 322.12601562500004 50.236875000000055 321.2520312500001 49.84375 320.3515625 C45.64202142496242 308.95242849550004 47.34853248414811 295.28042643289973 51 284 C50.548989257812536 283.67427001953126 50.09797851562507 283.3485400390625 49.63330078125 283.012939453125 C48.26055796747755 282.0215140876228 46.887838997201015 281.0300557076648 45.51513671875 280.03857421875 C43.899747879380584 278.8719961702983 42.284183360894986 277.70566135627314 40.66845703125 276.53955078125 C36.561380962715475 273.57487176480936 32.456674916945076 270.6070850456715 28.359375 267.62890625 C24.636421396407854 264.92431370804115 20.904390276275763 262.2327592638063 17.1640625 259.55224609375 C15.745329702794947 258.5346126184984 14.328585885738903 257.5141991977573 12.9140625 256.49072265625 C-5.910933400204726 242.8357519567653 -5.910933400204726 242.8357519567653 -28 237 C-28.953261718750014 236.9386083984375 -28.953261718750014 236.9386083984375 -29.92578125 236.8759765625 C-52.38803412267856 235.61533992168643 -67.39331242256856 246.54186976875008 -84.78662109375 259.36865234375 C-86.82829990095036 260.87345024687295 -88.87550947872796 262.37022254759984 -90.92578125 263.86328125 C-100.0148950072512 270.4896226063246 -109.01439371146625 277.2342281165179 -118 284 C-117.85562500000003 284.585234375 -117.71125 285.17046875000005 -117.5625 285.7734375 C-114.36049696665373 300.58270152922637 -114.97968294534769 314.0860225518808 -121 328 C-121.42281250000002 328.98613281250005 -121.84562499999998 329.972265625 -122.28125 330.98828125 C-129.09506436110644 344.99225437006464 -141.64534851504203 354.15087643520724 -156 359.4375 C-170.32154314326755 363.3823561951515 -185.50765751327236 362.0166521679945 -199 356 C-202.59198981813194 353.92894280756354 -205.8076919661641 351.63763713701405 -209 349 C-209.83144531250002 348.3632031249999 -210.662890625 347.7264062500001 -211.51953125 347.0703125 C-218.9743326992973 340.84819475491724 -223.55799217306173 332.95704309510063 -227 324 C-227.47953124999998 322.90365234374997 -227.47953124999998 322.90365234374997 -227.96875 321.78515625 C-232.69166118870095 309.34378372050537 -231.3164495725494 292.9413088529848 -226 281 C-219.05176176485185 266.61778043119796 -207.0719694599407 255.39929636001273 -192 250 C-177.9134931885186 245.12186213303778 -161.3773094854938 246.80841607907394 -148 253 C-146.71802734375 253.85658203125 -146.71802734375 253.85658203125 -145.41015625 254.73046875 C-143.10089601506434 256.18895844022245 -143.10089601506434 256.18895844022245 -140.60546875 255.984375 C-137.06271837265126 254.64588460256095 -134.28231157031632 252.541790504196 -131.3125 250.25 C-129.98378895226097 249.24904879164046 -128.6543280592618 248.24909238577584 -127.32421875 247.25 C-126.62474121093749 246.72148437500005 -125.92526367187497 246.19296874999998 -125.20458984375 245.6484375 C-121.38538898639649 242.79270724652815 -117.5009152530231 240.02796111432713 -113.625 237.25 C-107.65188355749558 232.9528619702662 -101.75217388584213 228.5909239952491 -96 224 C-106.30939227192368 216.0893277121378 -116.6237462200042 208.18590943063202 -127.0625 200.4462890625 C-129.03214723660608 198.97600299525527 -130.98481625915633 197.48490141543584 -132.9375 195.9921875 C-134.1869203816455 195.05651718994795 -135.4368961284781 194.12158788436545 -136.6875 193.1875 C-137.25170654296875 192.74833251953123 -137.8159130859375 192.30916503906246 -138.397216796875 191.856689453125 C-140.82887946003478 190.06631208930753 -142.3889180723305 188.97963060241102 -145.4609375 189.08203125 C-146.298828125 189.38496093749995 -147.13671875 189.68789062500002 -148 190 C-149.10214843749998 190.38156249999997 -150.204296875 190.76312499999995 -151.33984375 191.15625 C-153.7359960580498 192.05122979801206 -156.13183030524038 192.94706161588977 -158.52734375 193.84375 C-172.18493811045516 198.39116049571965 -186.83491370167957 196.33341704820964 -199.5625 190 C-213.7935884752735 181.80895028509042 -223.99437248255543 169.77041787754035 -229 154 C-232.8267105217884 139.36090605758795 -229.89126947571157 123.88299727390233 -222.875 110.8125 C-214.64126192902233 97.60022263029163 -202.18987748274589 88.36462713292599 -187.0859375 84.47265625 C-186.397578125 84.31667968750003 -185.70921875 84.160703125 -185 84 C-184.04673828125 83.72542968749997 -184.04673828125 83.72542968749997 -183.07421875 83.4453125 C-169.86592973207388 80.60963463174465 -153.54077543054234 84.4951049216121 -142.3515625 91.70703125 C-138.26050636067157 94.82629166187996 -134.49505600389045 98.22156107687516 -131 102 C-130.53078125000002 102.46406250000001 -130.06156249999998 102.92812500000002 -129.578125 103.40625 C-120.67359947265362 112.76977168854978 -116.60542627067667 125.81132996615196 -116.625 138.5 C-116.6237109375 139.369150390625 -116.62242187499999 140.23830078125002 -116.62109375 141.1337890625 C-116.75157000614763 149.2203515741934 -118.40587495932994 156.35659586231145 -121 164 C-120.33226562499999 164.21140624999998 -119.66453124999998 164.42281249999996 -118.9765625 164.640625 C-114.97376100652048 166.4686760757623 -111.81614446867957 169.03297121557563 -108.375 171.75 C-106.85531477246985 172.93116613338714 -105.33443689942357 174.11079907461203 -103.8125 175.2890625 C-103.02359375000003 175.900400390625 -102.2346875 176.51173828125002 -101.421875 177.1416015625 C-97.44710260880902 180.1915982804179 -93.41363054546088 183.16035544554325 -89.375 186.125 C-88.58665771484374 186.70443359374997 -87.79831542968748 187.28386718749994 -86.986083984375 187.880859375 C-83.17386616012192 190.67971280393442 -79.35604505360743 193.47081125501575 -75.53515625 196.2578125 C-74.49512451171876 197.01747314453132 -74.49512451171876 197.01747314453132 -73.43408203125 197.79248046875 C-72.1381328221778 198.73853289943736 -70.84099951206946 199.682966213476 -69.54248046875 200.62548828125 C-67.21998926548366 202.3201023921098 -65.03652223348575 203.9634777665142 -63 206 C-59.039999999999964 205.66999999999996 -55.08000000000004 205.34000000000003 -51 205 C-51 170.68 -51 136.36 -51 101 C-53.97000000000003 100.00999999999999 -56.94 99.01999999999998 -60 98 C-63.204030926200005 96.26270323112709 -66.07098601946825 94.16468080846914 -69 92 C-69.99000000000001 91.29874999999998 -70.98000000000002 90.59749999999997 -72 89.875 C-81.48677092542522 81.57407544025295 -90.09647387333371 67.54723789888135 -91.19287109375 54.74853515625 C-91.79097956717987 36.489914667364474 -89.4213201622897 22.54007556171507 -77.34765625 8.01171875 C-56.690472168336214 -13.909198946071456 -24.76729775295462 -16.019037165176314 0 0 Z " fill="#000000" transform="translate(546,340)"/>
<path d="M0 0 C10.966047568282193 7.590342579138792 19.142629530368936 20.75160805438577 22.25 33.625 C25.145973586535888 50.40077492020362 21.628665013789146 64.5854472056468 13 79 C4.782780311836177 90.0062760056793 -4.652641961223594 95.8263209806118 -17 102 C-17.33000000000004 122.46000000000004 -17.659999999999968 142.92000000000002 -18 164 C-18.33000000000004 164 -18.659999999999968 164 -19 164 C-19 142.88 -19 121.75999999999999 -19 100 C-12.565000000000055 96.53499999999997 -12.565000000000055 96.53499999999997 -6 93 C-5.669999999999959 92.34000000000003 -5.340000000000032 91.68 -5 91 C-3.6800000000000637 91 -2.3600000000000136 91 -1 91 C-1 90.34000000000003 -1 89.68 -1 89 C0.6500282786170146 87.64613064318604 2.3174387000052548 86.31321857560562 4 85 C4.330000000000041 84.34000000000003 4.659999999999968 83.68 5 83 C5.659999999999968 83 6.319999999999936 83 7 83 C7 82.00999999999999 7 81.01999999999998 7 80 C7.659999999999968 79.67000000000002 8.319999999999936 79.34000000000003 9 79 C9.495000000000005 77.51499999999999 9.495000000000005 77.51499999999999 10 76 C10.636796874999959 75.38640625 11.273593750000032 74.77281249999999 11.9296875 74.140625 C14.250406550696766 71.74108907588334 15.056825646685525 69.89168927445422 16.125 66.75 C16.592929687500032 65.41195312499997 16.592929687500032 65.41195312499997 17.0703125 64.046875 C21.52177044080588 49.45806326122448 21.806604997602562 35.98936448191466 15 22 C14.283281249999959 20.941679687500027 13.566562500000032 19.883359374999998 12.828125 18.79296875 C11 16 11 16 11 13 C10.340000000000032 13 9.680000000000064 13 9 13 C4.2325581395349445 8.697674418604663 4.2325581395349445 8.697674418604663 3 5 C2.340000000000032 5 1.6800000000000637 5 1 5 C0.5733203124999591 4.568164062499989 0.14664062500003183 4.136328124999977 -0.29296875 3.69140625 C-5.059137859734051 -1.0311365978600975 -12.570254159316391 -4.322674998082562 -19 -6 C-19.650976562499977 -6.183046875000002 -20.301953124999955 -6.3660937500000045 -20.97265625 -6.5546875 C-29.503553166064762 -8.751355841702775 -37.614644057478415 -8.851021020457324 -46 -6 C-46.845624999999984 -5.8349999999999795 -47.69124999999997 -5.670000000000016 -48.5625 -5.5 C-60.08497169949328 -3.1364160616424215 -68.22118804527372 3.509805639871331 -76 12 C-76.90750000000003 12.928125000000023 -77.815 13.856249999999989 -78.75 14.8125 C-87.46114424631105 27.15328768227397 -89.38747360764529 42.266520667664054 -88 57 C-86.4672836101476 64.92974228043386 -82.94407321035328 71.2197258085215 -78.390625 77.8203125 C-77 80 -77 80 -77 82 C-76.00999999999999 82.32999999999998 -75.01999999999998 82.65999999999997 -74 83 C-74 83.65999999999997 -74 84.32 -74 85 C-73.33999999999997 85 -72.68 85 -72 85 C-72 85.65999999999997 -72 86.32 -72 87 C-71.33999999999997 87 -70.68 87 -70 87 C-70 87.65999999999997 -70 88.32 -70 89 C-68.68 89.32999999999998 -67.36000000000001 89.65999999999997 -66 90 C-66 90.65999999999997 -66 91.32 -66 92 C-65.30390625000001 92.2784375 -64.60781250000002 92.55687499999999 -63.890625 92.84375 C-62.45976562499999 93.41609375000002 -62.45976562499999 93.41609375000002 -61 94 C-59.47632812500001 94.57234375000002 -59.47632812500001 94.57234375000002 -57.921875 95.15625 C-56.87515625000003 95.59968750000002 -55.82843750000001 96.04312500000003 -54.75 96.5 C-53.69296874999998 96.92281250000002 -52.63593750000001 97.34562499999998 -51.546875 97.78125 C-48.126772601692096 100.7607257089553 -48.45791177372439 102.60364311271195 -48.126312255859375 106.96612548828125 C-47.88532457597728 112.75437125001008 -47.99905328745797 118.53006195331034 -48.12109375 124.3203125 C-48.14545569951599 125.67364606405778 -48.16929596473108 127.02698910928234 -48.19264221191406 128.38034057617188 C-48.254880015873084 131.90831469636998 -48.32411062112419 135.4361166662377 -48.3948974609375 138.96392822265625 C-48.46613277034726 142.57743624596628 -48.53061705186332 146.19106441372656 -48.595703125 149.8046875 C-48.723935602849906 156.8699220133431 -48.85957060207022 163.93499651070647 -49 171 C-49.65999999999997 171 -50.31999999999999 171 -51 171 C-51 147.89999999999998 -51 124.80000000000001 -51 101 C-53.97000000000003 100.00999999999999 -56.94 99.01999999999998 -60 98 C-63.20403092620006 96.26270323112709 -66.0709860194682 94.1646808084692 -69 92 C-69.99000000000001 91.29874999999998 -70.98000000000002 90.59749999999997 -72 89.875 C-81.48677092542522 81.57407544025295 -90.09647387333376 67.54723789888129 -91.19287109375 54.74853515625 C-91.79097956717982 36.489914667364474 -89.42132016228976 22.54007556171507 -77.34765625 8.01171875 C-56.690472168336214 -13.909198946071456 -24.76729775295462 -16.019037165176314 0 0 Z " fill="#000000" transform="translate(546,340)"/>
<path d="M0 0 C0 0.9900000000000091 0 1.9800000000000182 0 3 C-2.0249580744779223 4.802598110223357 -4.010304763100407 6.402920430321728 -6.1875 8 C-6.765644531250018 8.438281250000045 -7.3437890624999795 8.876562499999977 -7.939453125 9.328125 C-11.189321904623284 11.766444626745624 -14.499621835805385 13.931594721157694 -18 16 C-19.327289195117487 16.959023984911482 -20.64065925336564 17.93768617284013 -21.9375 18.9375 C-24.20706275497895 20.685109924265134 -26.482405643434618 22.31680370613617 -28.87890625 23.890625 C-33.12641538881053 26.76128198993456 -37.0355790795341 30.022629220087197 -41 33.26953125 C-44 35 -44 35 -47.08203125 34.91015625 C-49.8555562293393 34.04505408107627 -52.15820869880656 33.04209020270605 -54.6875 31.625 C-65.27296650469998 26.198572148407948 -75.29225316144891 25.25936394695293 -87 26 C-87.495 26.495000000000005 -87.495 26.495000000000005 -88 27 C-88.92812500000002 27.061874999999986 -89.85624999999999 27.123749999999973 -90.8125 27.1875 C-102.33904582826972 28.766801780151468 -113.2855115578206 37.47563082774104 -120.8125 45.9375 C-121.53437500000001 46.948125000000005 -122.25625000000002 47.95875000000001 -123 49 C-123.48984374999998 49.66902343749996 -123.97968750000001 50.33804687500003 -124.484375 51.02734375 C-131.07162423278504 60.826692237385714 -134.6520154985605 74.23764965024918 -133 86 C-130.90550475946634 95.4893457836422 -128.15480989298834 105.30648763376462 -122 113 C-122 113.65999999999997 -122 114.31999999999994 -122 115 C-121.33999999999997 115 -120.68 115 -120 115 C-118.95502642129196 116.16965792616747 -117.96390400491941 117.38768091676206 -117 118.625 C-112.92488832730908 123.38909962559944 -108.5295227667072 126.14267746407415 -103 129 C-102.18660156250002 129.48855468750003 -101.37320312500003 129.97710937500005 -100.53515625 130.48046875 C-89.07913141569617 136.48605005080242 -72.23262558800155 136.11959265749033 -60 132.3125 C-55.92560504062408 130.63833771183226 -52.205362227644855 128.51221561199588 -48.62109375 125.953125 C-47 125 -47 125 -44 125 C-44 124.00999999999999 -44 123.01999999999998 -44 122 C-43.00999999999999 121.66999999999996 -42.01999999999998 121.34000000000003 -41 121 C-40.670000000000016 120.34000000000003 -40.34000000000003 119.68000000000006 -40 119 C-39.34000000000003 119 -38.68000000000001 119 -38 119 C-38 118.34000000000003 -38 117.68000000000006 -38 117 C-37.34000000000003 117 -36.68000000000001 117 -36 117 C-35.74347656250001 116.29875000000004 -35.486953125000014 115.59749999999997 -35.22265625 114.875 C-33.42209362630069 110.64108916599776 -30.960755450719887 106.85287374919835 -28.55859375 102.9375 C-27.101987028742656 100.19221615442223 -26.41018591400899 98.05672790713538 -26 95 C-25.340000000000032 95 -24.680000000000007 95 -24 95 C-26.34643569546796 109.3132577423545 -34.224917711906755 119.67677893946222 -45.921875 128.10546875 C-60.107583559186935 136.90586202282896 -76.1359712570545 139.75751883458838 -92.48828125 136.1171875 C-100.66149392591399 133.9483975778861 -107.46666085810392 130.39815637047604 -114 125 C-114.83144531250002 124.36320312500004 -115.66289062499999 123.72640624999997 -116.51953125 123.0703125 C-123.97433269929729 116.84819475491724 -128.5579921730618 108.95704309510063 -132 100 C-132.47953124999998 98.90365234374997 -132.47953124999998 98.90365234374997 -132.96875 97.78515625 C-137.69166118870095 85.34378372050537 -136.3164495725494 68.94130885298478 -131 57 C-124.0517617648519 42.61778043119796 -112.0719694599407 31.399296360012727 -97 26 C-82.9134931885186 21.12186213303778 -66.37730948549375 22.808416079073936 -53 29 C-52.14535156249997 29.57105468750001 -51.29070312499999 30.142109375000018 -50.41015625 30.73046875 C-48.100896015064336 32.188958440222564 -48.100896015064336 32.188958440222564 -45.60546875 31.984375 C-42.06265634094848 30.64586116629539 -39.28248425875421 28.541617810118737 -36.3125 26.25 C-34.98241471299491 25.249143744431763 -33.65165531438038 24.24918287896412 -32.3203125 23.25 C-31.620673828125007 22.721484375000045 -30.921035156250014 22.192968749999977 -30.2001953125 21.6484375 C-26.398207409748522 18.79989973708632 -22.542169131053356 16.02660352531791 -18.6875 13.25 C-17.926872558593743 12.700939941406205 -17.166245117187486 12.151879882812523 -16.382568359375 11.586181640625 C-10.95617705698055 7.673994434611586 -5.503760952544894 3.8028499043965667 0 0 Z " fill="#000000" transform="translate(451,564)"/>
<path d="M0 0 C11.389812863823295 1.479844299095248 20.439283569132954 8.684355756066111 28 17 C33.30440966253104 24.145609710682265 37.06345646108298 31.30956081295915 39 40 C39.168383789062545 40.611821289062505 39.33676757812498 41.22364257812501 39.51025390625 41.85400390625 C42.820857044811646 56.360584957076185 39.67661959202769 70.0440825616746 32.4765625 82.671875 C31.07861873414106 84.87604030278283 29.598846075023857 86.93833006115347 28 89 C27.551406250000014 89.61101562499994 27.102812500000027 90.22203124999999 26.640625 90.8515625 C19.81364819342548 99.55787561849672 10.26035454634848 104.39691253242086 0 108 C-0.7025390625000227 108.24749999999995 -1.4050781250000455 108.495 -2.12890625 108.75 C-16.956597688357192 112.92844925073086 -32.811693864859194 110.03792993874174 -46.125 102.9375 C-58.72297249923258 95.05961218385721 -65.40154216062547 85.3765236136096 -71 72 C-71.38156249999997 71.12601562500004 -71.76312499999995 70.25203124999996 -72.15625 69.3515625 C-75.8266392370681 59.393932440176286 -75.22438332865204 46.71623980103084 -71.8515625 36.78515625 C-71 35 -71 35 -69 33 C-69.14437499999997 34.278749999999945 -69.28875000000005 35.557500000000005 -69.4375 36.875 C-69.52773437500002 37.69742187500003 -69.61796875000005 38.51984374999995 -69.7109375 39.3671875 C-69.89912629712398 41.081231408940425 -70.09161368285447 42.79481059989985 -70.2890625 44.5078125 C-72.04293146944667 60.49307539295728 -70.0106556787747 74.75836738250132 -59.75 87.8125 C-50.350755777631434 98.57440236333787 -38.26269239889689 105.77332412722433 -23.791259765625 107.220947265625 C-9.120158889318986 107.96356827720376 2.5760506947907515 105.94846247332305 14.85546875 97.390625 C17 96 17 96 19 96 C19.495000000000005 94.51499999999999 19.495000000000005 94.51499999999999 20 93 C22.4375 90.3125 22.4375 90.3125 25 88 C25.659999999999968 88 26.319999999999936 88 27 88 C27.402187499999968 86.93845703124998 27.402187499999968 86.93845703124998 27.8125 85.85546875 C29.043441872780022 82.8955394440718 30.490285958034974 80.13943954357967 32 77.3125 C34.44289017291237 72.50993245811878 35.886981562839196 68.18131785053606 36.67578125 62.86328125 C37 61 37 61 38 60 C38.70223765787489 48.1109531410948 37.35818391245857 39.38128216365965 32.1875 28.8125 C31.85621093750001 28.134614257812473 31.524921875000018 27.456728515624945 31.18359375 26.75830078125 C24.387908488606968 13.451172863147235 13.055038861991079 7.109683905540578 0 1 C0 0.6699999999999591 0 0.34000000000003183 0 0 Z " fill="#000000" transform="translate(668,591)"/>
<path d="M0 0 C4.09105613932843 3.1192604118799636 7.856506496109546 6.514529826875162 11.3515625 10.29296875 C11.820781249999982 10.757031250000011 12.29000000000002 11.221093750000023 12.7734375 11.69921875 C21.95398922242532 21.352994788014257 25.716277249095924 34.469904290034435 25.6015625 47.48046875 C25.613164062500005 48.81368164062502 25.613164062500005 48.81368164062502 25.625 50.173828125 C25.622421874999986 51.03169921875002 25.619843749999973 51.889570312499984 25.6171875 52.7734375 C25.614931640625002 53.54582763671874 25.612675781250005 54.31821777343748 25.6103515625 55.114013671875 C25.321869743126967 57.542976160463695 24.559720876497067 59.182890751326454 23.3515625 61.29296875 C23.326506347656277 60.57117431640626 23.301450195312498 59.849379882812514 23.275634765625 59.105712890625 C23.160049482264924 55.8554337546874 23.037154760460112 52.605471865730806 22.9140625 49.35546875 C22.87474609374999 48.219160156249984 22.835429687499982 47.08285156249997 22.794921875 45.912109375 C22.753027343749977 44.83251953125 22.71113281250001 43.7529296875 22.66796875 42.640625 C22.631311035156273 41.64039306640626 22.59465332031249 40.64016113281252 22.556884765625 39.609619140625 C22.60484409207686 37.332276869314455 22.60484409207686 37.332276869314455 21.3515625 36.29296875 C21.124687499999993 35.01421875 20.897812499999986 33.735468749999995 20.6640625 32.41796875 C19.594398332750416 27.28358074720194 17.31535124354906 23.17947167902554 14.69140625 18.67578125 C13.3515625 16.29296875 13.3515625 16.29296875 12.3515625 13.29296875 C11.691562500000032 13.29296875 11.031562500000007 13.29296875 10.3515625 13.29296875 C9.16015625 11.97265625 9.16015625 11.97265625 7.7890625 10.16796875 C-0.5277202861415162 0.19991189978202328 -13.039369491317188 -4.317322141516115 -25.6484375 -5.70703125 C-39.72698085171288 -6.88024319597605 -52.53406044346559 -3.5699938385916425 -63.6484375 5.29296875 C-70.32687931947919 11.079845843500891 -76.4235378151277 16.918632471541343 -79.6484375 25.29296875 C-79.991328125 25.9052734375 -80.33421874999999 26.517578125 -80.6875 27.1484375 C-85.96749353744354 36.967706057044325 -86.9649867473151 49.757566334799606 -84.0234375 60.41796875 C-81.55600955083725 68.17629085860904 -78.23720632995588 74.5627744660647 -73.6484375 81.29296875 C-72.95414371060548 82.61212694984965 -72.27313254755444 83.93946281363208 -71.6484375 85.29296875 C-70.98843749999997 85.29296875 -70.3284375 85.29296875 -69.6484375 85.29296875 C-69.31843750000002 86.61296874999994 -68.98843749999997 87.93296874999999 -68.6484375 89.29296875 C-78.72488686669698 81.68422126902476 -85.75461559478026 69.8594505509908 -87.6484375 57.29296875 C-88.91306779007647 39.610100075910054 -85.89847591415037 24.694178888371425 -74.46484375 10.6015625 C-65.8677836769902 1.3551349994722273 -54.973739040482656 -4.914219477718348 -42.6484375 -7.70703125 C-42.01292968749999 -7.890078125000002 -41.37742187499998 -8.073125000000005 -40.72265625 -8.26171875 C-27.514367232073823 -11.097396618255345 -11.18921293054234 -7.211926328387904 0 0 Z " fill="#000000" transform="translate(403.6484375,431.70703125)"/>
<path d="M0 0 C6.729562024369443 5.678067958061661 12.214263674646531 11.997630531773098 16 20 C16 20.659999999999968 16 21.319999999999993 16 22 C15.340000000000032 22 14.680000000000064 22 14 22 C13.734453124999959 21.434101562500018 13.468906250000032 20.86820312499998 13.1953125 20.28515625 C12.842109375000064 19.551679687499984 12.488906250000014 18.818203125000025 12.125 18.0625 C11.776953124999977 17.331601562499998 11.428906249999955 16.600703124999995 11.0703125 15.84765625 C10.131502300859097 13.836675410004773 10.131502300859097 13.836675410004773 8 13 C7.5049999999999955 11.514999999999986 7.5049999999999955 11.514999999999986 7 10 C-1.7269329056580318 0.21525704517125632 -15.005923805425596 -7.923539255782032 -28.234130859375 -9.21875 C-30.722878086889068 -9.340139967402365 -33.195818674925135 -9.379499329516875 -35.6875 -9.375 C-37.009353027343764 -9.373670654296859 -37.009353027343764 -9.373670654296859 -38.35791015625 -9.372314453125 C-45.45153093785882 -9.24413216602386 -51.53251416002411 -8.012115679365706 -58 -5 C-58.97324218749998 -4.566874999999982 -59.946484374999955 -4.1337500000000205 -60.94921875 -3.6875 C-64.37724829738363 -1.7913300070810578 -67.11448841535719 0.5112279779286837 -69.9375 3.1875 C-70.45965087890625 3.6794384765624955 -70.98180175781249 4.171376953124991 -71.519775390625 4.67822265625 C-73.02328545922626 6.108737742460676 -74.51257896875586 7.552793652536025 -76 9 C-76.71156250000001 9.674179687499986 -77.42312500000003 10.348359374999973 -78.15625 11.04296875 C-84.86329266282871 17.94122096242694 -88.33710852257195 27.449984412744016 -88.859375 37 C-89 39 -89 39 -89.56640625 41.265625 C-90.13624158010816 44.85918113581721 -89.68695751332746 48.18076748459089 -89.1875 51.75 C-89.09420410156247 52.45576171875001 -89.00090820312505 53.16152343750002 -88.90478515625 53.888671875 C-88.20424715401805 59.000135087265676 -87.25195195139452 63.99219219442182 -86 69 C-90.61389147338673 64.96778639902305 -91.66113274804184 59.13300682054347 -92.30029296875 53.2236328125 C-92.43663024752891 50.350062475159234 -92.46773681057971 47.501576574754154 -92.4375 44.625 C-92.4299267578125 43.61348876953127 -92.42235351562499 42.60197753906249 -92.41455078125 41.559814453125 C-92.25040431599689 34.11870771988259 -91.38617108740766 27.719598076880573 -88 21 C-87.57589843749997 20.147929687499982 -87.15179687499995 19.29585937500002 -86.71484375 18.41796875 C-78.4296323566723 3.393811042322227 -66.1877323250992 -5.86575200173786 -50 -11 C-32.693785821723054 -15.397018586011711 -14.17067176311798 -10.346200690685578 0 0 Z " fill="#000000" transform="translate(687,435)"/>
<path d="M0 0 C0.9900000000000091 0.49500000000000455 0.9900000000000091 0.49500000000000455 2 1 C1.9535937499999818 1.6316406250000455 1.9071875000000205 2.2632812499999773 1.859375 2.9140625 C1.360066778743203 15.28977341257962 5.161430308050228 29.2017878850628 13 39 C13 39.65999999999997 13 40.32000000000005 13 41 C13.660000000000025 41 14.319999999999993 41 15 41 C16.04497357870804 42.169657926167474 17.036095995080586 43.387680916762065 18 44.625 C22.075111672690923 49.389099625599556 26.470477233292797 52.142677464074154 32 55 C32.813398437499984 55.48855468750003 33.62679687499997 55.977109375000055 34.46484375 56.48046875 C45.92086858430383 62.48605005080242 62.767374411998446 62.11959265749033 75 58.3125 C79.07439495937592 56.638337711832264 82.79463777235514 54.512215611995885 86.37890625 51.953125 C88 51 88 51 91 51 C91 50.00999999999999 91 49.01999999999998 91 48 C91.99000000000001 47.66999999999996 92.98000000000002 47.34000000000003 94 47 C94.495 46.00999999999999 94.495 46.00999999999999 95 45 C95.65999999999997 45 96.32 45 97 45 C97 44.34000000000003 97 43.67999999999995 97 43 C97.65999999999997 43 98.32 43 99 43 C99.2565234375 42.29875000000004 99.51304687499999 41.59749999999997 99.77734375 40.875 C101.5779063736993 36.641089165997755 104.03924454928011 32.85287374919835 106.44140625 28.9375 C107.89801297125734 26.192216154422226 108.58981408599101 24.056727907135382 109 21 C109.65999999999997 21 110.32 21 111 21 C108.65356430453204 35.31325774235438 100.77508228809324 45.676778939462224 89.078125 54.10546875 C74.89241644081312 62.905862022828956 58.864028742945436 65.75751883458838 42.51171875 62.1171875 C34.33850607408601 59.94839757788611 27.53333914189608 56.398156370476045 21 51 C20.168554687499977 50.36320312500004 19.33710937500001 49.72640624999997 18.48046875 49.0703125 C11.033852988599165 42.855026903870225 6.422332317743724 34.95769557409437 3 26 C2.6803125000000136 25.222695312500036 2.3606250000000273 24.44539062499996 2.03125 23.64453125 C-0.759217611288193 15.931988824356267 -0.27060442360601655 8.078043163942311 0 0 Z " fill="#000000" transform="translate(316,638)"/>
<path d="M0 0 C3.8613673855309685 2.130409592017088 4.722510608183768 4.597741440285176 6.07421875 8.66796875 C7.533736995179879 12.344476734693615 9.675199551648006 15.56977837071679 11.79296875 18.8984375 C13 21 13 21 13 23 C13.990000000000009 23.329999999999984 14.980000000000018 23.660000000000025 16 24 C16 24.660000000000025 16 25.319999999999993 16 26 C16.660000000000025 26 17.319999999999993 26 18 26 C18 26.660000000000025 18 27.319999999999993 18 28 C18.660000000000025 28 19.319999999999993 28 20 28 C20 28.660000000000025 20 29.319999999999993 20 30 C21.319999999999993 30.329999999999984 22.639999999999986 30.660000000000025 24 31 C24 31.660000000000025 24 32.31999999999999 24 33 C24.69609374999999 33.278437499999995 25.392187499999977 33.55687499999999 26.109375 33.84375 C27.54023437500001 34.416093750000016 27.54023437500001 34.416093750000016 29 35 C30.52367187499999 35.572343750000016 30.52367187499999 35.572343750000016 32.078125 36.15625 C33.12484374999997 36.599687500000016 34.17156249999999 37.04312500000003 35.25 37.5 C36.30703125000002 37.92281250000002 37.36406249999999 38.345624999999984 38.453125 38.78125 C41.87322739830785 41.760725708955306 41.542088226275666 43.60364311271201 41.873687744140625 47.96612548828125 C42.11467542402272 53.75437125001008 42.00094671254203 59.53006195331034 41.87890625 65.3203125 C41.85454430048401 66.67364606405778 41.83070403526892 68.02698910928234 41.80735778808594 69.38034057617188 C41.745119984126916 72.90831469636993 41.67588937887581 76.4361166662377 41.6051025390625 79.96392822265625 C41.53386722965274 83.57743624596628 41.46938294813668 87.19106441372651 41.404296875 90.8046875 C41.276064397150094 97.86992201334311 41.14042939792978 104.93499651070647 41 112 C40.34000000000003 112 39.68000000000001 112 39 112 C39 88.89999999999998 39 65.80000000000001 39 42 C36.02999999999997 41.00999999999999 33.06 40.01999999999998 30 39 C26.795969073799938 37.26270323112709 23.92901398053175 35.1646808084692 21 33 C20.00999999999999 32.298749999999984 19.019999999999982 31.597500000000025 18 30.875 C9.16886292795914 23.147755061964233 3.8248329933753666 12.88952452231581 0 2 C0 1.339999999999975 0 0.6800000000000068 0 0 Z " fill="#000000" transform="translate(456,399)"/>
<path d="M0 0 C0.9900000000000091 0 1.9800000000000182 0 3 0 C3 0.6599999999999682 3 1.32000000000005 3 2 C1.0746787472710366 3.52601829195396 -0.8516198825172978 4.926029099869993 -2.875 6.3125 C-4.156829368390504 7.207504130684811 -5.43804871287773 8.103382390996899 -6.71875 9 C-7.4083984374999545 9.480820312499986 -8.098046875000023 9.961640624999973 -8.80859375 10.45703125 C-11.106990387414953 12.075331912707497 -13.383745099072257 13.720556133487094 -15.65625 15.375 C-16.440161132812477 15.945651855468782 -17.224072265624955 16.51630371093745 -18.03173828125 17.104248046875 C-19.557170218833903 18.216297147445403 -21.08163589654839 19.32967330506085 -22.60498046875 20.444580078125 C-27.28324165387687 23.842402967705425 -32.05422001814554 27.004656706905962 -37 30 C-32.871289453820395 34.492765183518145 -28.25924011445852 37.70173907950914 -23.1875 41.0625 C-15.352723816903676 46.33224287986195 -7.737868541167586 51.82473057353616 -0.22265625 57.5390625 C0.34130859375 57.96735351562495 0.9052734375 58.395644531250014 1.486328125 58.8369140625 C2.763986195828238 59.81865003821383 4.022934651955552 60.8246642991752 5.27734375 61.8359375 C7.015983536819931 63.24495286978072 7.015983536819931 63.24495286978072 9.625 63 C13.47174492862871 61.86022372485081 16.738968193061055 60.19050438172371 20.2421875 58.25390625 C26.991351009196023 55.18523558930315 33.21086616128446 54.72066980471777 40.5 54.875 C41.73363281249999 54.888535156249986 41.73363281249999 54.888535156249986 42.9921875 54.90234375 C44.994920825811164 54.92563134681177 46.9975015360111 54.961490414154014 49 55 C49 55.33000000000004 49 55.65999999999997 49 56 C48.128593749999936 56.03738281250003 47.257187499999986 56.074765625000055 46.359375 56.11328125 C35.050540992929655 56.737470140000596 25.218071194833556 58.350315576488924 15.25390625 63.9140625 C12.80560253738804 65.09366116916135 10.69422404115278 65.66936554055508 8 66 C3.7318525257488773 64.10304556699953 0.21143226617334676 60.818235999610465 -3.4375 57.9375 C-6.079324571046982 55.94002288530589 -8.788616340876615 54.12155456029791 -11.5625 52.3125 C-17.427671371238603 48.47032210043699 -23.008539899828065 44.30633257073282 -28.568603515625 40.036376953125 C-29.216276855468777 39.54226318359372 -29.863950195312555 39.04814941406255 -30.53125 38.5390625 C-31.10423828124999 38.097719726562445 -31.677226562499982 37.656376953125005 -32.267578125 37.20166015625 C-34.007636048894824 35.92230088074825 -34.007636048894824 35.92230088074825 -36.158203125 34.99365234375 C-38 34 -38 34 -38.9375 31.5625 C-39 29 -39 29 -37.75 27.1875 C-36 26 -36 26 -33 26 C-33 25.340000000000032 -33 24.67999999999995 -33 24 C-30.91015625 22.51953125 -30.91015625 22.51953125 -28.0625 20.8125 C-23.355387276365946 17.917686490374876 -19.041865552639024 14.793940011665086 -14.77734375 11.28515625 C-13 10 -13 10 -11 10 C-10.669999999999959 9.009999999999991 -10.340000000000032 8.019999999999982 -10 7 C-8.22265625 5.61328125 -8.22265625 5.61328125 -6.0625 4.3125 C-5.35222656250005 3.875507812500018 -4.641953124999986 3.4385156250000364 -3.91015625 2.98828125 C-2 2 -2 2 0 2 C0 1.3400000000000318 0 0.67999999999995 0 0 Z " fill="#000000" transform="translate(610,533)"/>
<path d="M0 0 C0 0.6599999999999682 0 1.32000000000005 0 2 C-0.5733105468750637 1.9790527343750455 -1.1466210937500136 1.9581054687499773 -1.7373046875 1.9365234375 C-26.64659520204225 1.14717969476078 -41.236378247440086 9.951227860646554 -60.78662109375 24.36865234375 C-62.828299900950356 25.87345024687295 -64.8755094787279 27.370222547599838 -66.92578125 28.86328125 C-69.98032236461114 31.0892626290688 -73.02452246225494 33.32882442582286 -76.064453125 35.57470703125 C-78.18880735716664 37.13903347012342 -80.32118331502579 38.69212678108579 -82.453125 40.24609375 C-83.92739514448567 41.330305305264346 -85.4013605713887 42.41493134321706 -86.875 43.5 C-87.5718994140625 44.004748535156295 -88.268798828125 44.50949707031248 -88.98681640625 45.029541015625 C-92.88623961280223 47.81571783419008 -92.88623961280223 47.81571783419008 -95 52 C-95.66000000000003 52 -96.32 52 -97 52 C-96.6823627996136 48.773474753969595 -96.31796068857352 47.321694082177146 -94.00390625 44.98046875 C-93.1982421875 44.388789062499995 -92.392578125 43.79710937499999 -91.5625 43.1875 C-90.75941406250001 42.58292968750004 -89.95632812500003 41.97835937499997 -89.12890625 41.35546875 C-87 40 -87 40 -85 40 C-85 39.34000000000003 -85 38.67999999999995 -85 38 C-84.05124999999998 37.504999999999995 -83.10250000000002 37.00999999999999 -82.125 36.5 C-78.95684191795272 34.69414989323309 -76.19550495538147 32.62144278210144 -73.375 30.3125 C-68.06438011472886 25.977626539432322 -62.501766070653275 22.107087359948878 -56.8330078125 18.2578125 C-54.851960717790234 16.898415239485303 -52.89017348549834 15.513869958638452 -50.9296875 14.125 C-37.46066678538534 4.627452215722656 -37.46066678538534 4.627452215722656 -30 2 C-29.051249999999982 1.6081249999999727 -28.10250000000002 1.2162499999999454 -27.125 0.8125 C-18.091208692676332 -1.5362857399042014 -9.202263594120382 -0.9509493380251115 0 0 Z " fill="#000000" transform="translate(522,575)"/>
<path d="M0 0 C11.389812863823295 1.479844299095248 20.439283569132954 8.684355756066111 28 17 C33.30440966253104 24.145609710682265 37.06345646108298 31.30956081295915 39 40 C39.17128417968752 40.60312011718747 39.342568359375036 41.206240234374945 39.51904296875 41.82763671875 C40.4438970558665 46.00497259040628 40.18462301509999 50.301685363145566 40.1875 54.5625 C40.199746093750036 55.52091796875004 40.21199218749996 56.47933593749997 40.224609375 57.466796875 C40.22654296874998 58.38654296874995 40.228476562499964 59.306289062500014 40.23046875 60.25390625 C40.23457763671877 61.0925219726563 40.238686523437536 61.931137695312486 40.242919921875 62.795166015625 C40 65 40 65 38 68 C38.01047363281248 67.38068603515626 38.020947265624955 66.76137207031252 38.03173828125 66.123291015625 C38.07376098509553 63.26973665133107 38.09947126621307 60.41624774118179 38.125 57.5625 C38.14175781250003 56.58861328124999 38.15851562499995 55.61472656249998 38.17578125 54.611328125 C38.24025095045158 44.97310790748111 36.616248315899725 37.36140211637883 32.1875 28.8125 C31.85685546875004 28.140253906249995 31.526210937499968 27.46800781249999 31.185546875 26.775390625 C24.425703262357047 13.450324616968715 13.046721866100484 7.105791598786709 0 1 C0 0.6699999999999591 0 0.34000000000003183 0 0 Z " fill="#000000" transform="translate(668,591)"/>
<path d="M0 0 C0.3299999999999841 0 0.660000000000025 0 1 0 C1.0271206627493257 1.437395125715227 1.0464506704937548 2.8749386285099945 1.0625 4.3125 C1.0741015625000045 5.113007812499973 1.085703125000009 5.913515625000002 1.09765625 6.73828125 C1 9 1 9 0 12 C-2.634447443307522 25.78018662653176 1.5775727097405365 38.70687590901491 9.125 50.25 C9.743749999999977 51.15750000000003 10.362500000000011 52.065000000000055 11 53 C11.694293789394521 54.31915819984954 12.37530495244556 55.646494063632076 13 57 C13.660000000000025 57 14.319999999999993 57 15 57 C15.329999999999984 58.32000000000005 15.660000000000025 59.639999999999986 16 61 C5.938066575049959 53.40221353626225 -1.132743208887689 41.55994426474598 -3 29 C-3.607912700181373 19.163734113928285 -3.9747620877805616 9.203466977063329 0 0 Z " fill="#000000" transform="translate(319,460)"/>
<path d="M0 0 C0.9528748925981745 3.0195832745170037 1.1497233537784268 3.6780947893763596 -0.25 6.6875 C-1.1162500000000364 8.32718749999998 -1.1162500000000364 8.32718749999998 -2 10 C-8.551447959257757 25.787391667674683 -7.041602203781849 40.83359118487249 -3 57 C-7.61389147338673 52.967786399023055 -8.661132748041837 47.13300682054347 -9.30029296875 41.2236328125 C-9.436628916042991 38.35009053878679 -9.467499041742713 35.501548114624825 -9.4375 32.625 C-9.430651855468795 31.614213867187516 -9.423803710937477 30.603427734374975 -9.416748046875 29.56201171875 C-9.17331616664569 18.24379688292123 -5.9004904237821165 9.576205769744774 0 0 Z " fill="#000000" transform="translate(604,447)"/>
<path d="M0 0 C0.3300000000000409 0 0.6599999999999682 0 1 0 C0.8556250000000318 1.2787499999999454 0.71124999999995 2.5575000000000045 0.5625 3.875 C0.47226562499997726 4.697421875000032 0.3820312499999545 5.51984374999995 0.2890625 6.3671875 C0.10087370287601516 8.081231408940425 -0.09161368285447224 9.794810599899847 -0.2890625 11.5078125 C-1.805288807126658 25.32713227066847 -0.36434602814426853 36.41195647472023 6 49 C6.734765625000023 49.881718750000005 7.4695312500000455 50.76343750000001 8.2265625 51.671875 C9.104414062500041 52.82429687499996 9.104414062500041 52.82429687499996 10 54 C9.669999999999959 54.99000000000001 9.340000000000032 55.98000000000002 9 57 C1.155120986495831 46.32449453832419 -4.411040052384692 34.090463125127485 -4.3125 20.6875 C-4.31048583984375 19.944919433593782 -4.3084716796875 19.20233886718745 -4.306396484375 18.437255859375 C-4.186173390889962 11.826425515226106 -2.9712061101794234 5.942412220358847 0 0 Z " fill="#000000" transform="translate(598,624)"/>
<path d="M0 0 C1.4540625000000205 0.030937500000050022 1.4540625000000205 0.030937500000050022 2.9375 0.0625 C-0.49170811243777734 2.348638741625223 -4.040450635592265 3.6961697291282007 -7.875 5.125 C-8.574316406249977 5.393769531249973 -9.273632812500011 5.662539062499945 -9.994140625 5.939453125 C-22.887054957894122 10.775803590379383 -36.92324073474572 10.316414789482565 -49.66015625 4.97265625 C-51.4928719587906 4.064379152698166 -53.28442147984424 3.073564256559166 -55.0625 2.0625 C-51.367607402224564 0.6953032073805616 -49.32497449717039 1.4711031058283197 -45.75 2.9375 C-32.195020939139 8.144048248542617 -17.296739338655073 6.805660467718212 -4.0625 1.0625 C-3.0625 0.0625 -3.0625 0.0625 0 0 Z " fill="#000000" transform="translate(400.0625,526.9375)"/>
<path d="M0 0 C4.766248180350885 4.2700360410266285 4.912982117328511 10.003402353025649 5.296875 16.06640625 C5.897352131955358 30.55054675395519 2.883255000183567 44.73496290263438 -7 56 C-7.990000000000009 56 -8.980000000000018 56 -10 56 C-9.506289062499945 55.24074218750002 -9.012578125000005 54.481484375000036 -8.50390625 53.69921875 C-7.863242187499964 52.70535156250003 -7.222578125000041 51.711484375 -6.5625 50.6875 C-5.924414062499977 49.70136718750001 -5.2863281249999545 48.71523437500002 -4.62890625 47.69921875 C-2.8938439361411383 45.047230073827905 -2.8938439361411383 45.047230073827905 -2 42 C-1.3400000000000318 42 -0.67999999999995 42 0 42 C0.21595304184938868 40.45233653341302 0.4295846497418552 38.904337171332884 0.63671875 37.35546875 C0.9011165142391064 35.641147762514436 1.2243245554906252 33.935587511866515 1.58203125 32.23828125 C3.720141090466768 21.244258392890345 2.3151287716653997 10.874733312776698 0 0 Z " fill="#000000" transform="translate(703,459)"/>
<path d="M0 0 C0.9900000000000091 0.3300000000000409 1.9800000000000182 0.6599999999999682 3 1 C2.1079687499999977 1.7360546874999727 1.2159374999999955 2.4721093749999454 0.296875 3.23046875 C-0.8856301506934301 4.215889708911163 -2.0679099118799513 5.20158117918038 -3.25 6.1875 C-3.8365234374999773 6.670253906249968 -4.423046875000011 7.15300781250005 -5.02734375 7.650390625 C-14.931393791687015 15.940859480120025 -20.084573165246866 25.739335396992715 -23.140625 38.19140625 C-23.424218750000023 39.11824218749996 -23.70781249999999 40.04507812500003 -24 41 C-24.99000000000001 41.495000000000005 -24.99000000000001 41.495000000000005 -26 42 C-25.51563931312586 27.953540080649645 -18.477676736205808 16.214462515091327 -8.55859375 6.64453125 C-2.745808678500964 1.3729043392504536 -2.745808678500964 1.3729043392504536 0 0 Z " fill="#000000" transform="translate(342,596)"/>
<path d="M0 0 C6.404540569839014 -0.41411745044672443 10.336635957512613 0.5879838765105205 15.9375 3.625 C16.987803955078107 4.17414062499995 16.987803955078107 4.17414062499995 18.059326171875 4.734375 C23.277529702042216 7.504181212045637 28.219131264133466 10.526131350197716 33 14 C33.98484374999998 14.685781249999991 34.969687499999964 15.371562499999982 35.984375 16.078125 C41.85895882622299 20.223135923071027 41.85895882622299 20.223135923071027 44 22 C44 22.659999999999968 44 23.32000000000005 44 24 C44.99000000000001 24 45.98000000000002 24 47 24 C47 24.659999999999968 47 25.32000000000005 47 26 C47.99000000000001 26 48.98000000000002 26 50 26 C50 26.659999999999968 50 27.32000000000005 50 28 C50.99000000000001 28.33000000000004 51.98000000000002 28.659999999999968 53 29 C52.66999999999996 29.659999999999968 52.34000000000003 30.32000000000005 52 31 C51.174999999999955 30.405742187499982 50.35000000000002 29.811484374999964 49.5 29.19921875 C46.36205498518814 26.943619295560893 43.213314936902634 24.703484968296493 40.0615234375 22.46728515625 C38.71294871751502 21.50743981433743 37.36712101259923 20.543720215954522 36.0244140625 19.57568359375 C28.72798140713644 14.319407895245945 21.413384811012634 9.434356308233873 13.375 5.375 C12.398776855468782 4.8787915039062 12.398776855468782 4.8787915039062 11.40283203125 4.37255859375 C7.619055657994636 2.5371960349378924 4.176811877783848 1.475513967624579 0 1 C0 0.6699999999999591 0 0.34000000000003183 0 0 Z " fill="#000000" transform="translate(523,577)"/>
<path d="M0 0 C0.9900000000000091 0 1.9800000000000182 0 3 0 C3 0.6599999999999682 3 1.32000000000005 3 2 C1.0747122521796655 3.5259917358125676 -0.8517490775047918 4.925915438737775 -2.875 6.3125 C-4.151545032832928 7.205009640509957 -5.427559470979645 8.098278522291139 -6.703125 8.9921875 C-7.736630859375055 9.712934570312541 -7.736630859375055 9.712934570312541 -8.791015625 10.4482421875 C-12.763721161733542 13.238971231651021 -16.69217549715347 16.090987131873817 -20.625 18.9375 C-21.3944091796875 19.492844238281236 -22.163818359375 20.048188476562473 -22.95654296875 20.620361328125 C-27.084163682744247 23.57556509284632 -27.084163682744247 23.57556509284632 -31.05224609375 26.736572265625 C-32.01638427734372 27.361968994140625 -32.01638427734372 27.361968994140625 -33 28 C-33.99000000000001 27.66999999999996 -34.98000000000002 27.340000000000032 -36 27 C-35.00999999999999 26.66999999999996 -34.01999999999998 26.340000000000032 -33 26 C-33 25.340000000000032 -33 24.67999999999995 -33 24 C-30.91015625 22.51953125 -30.91015625 22.51953125 -28.0625 20.8125 C-23.355387276365946 17.917686490374876 -19.041865552639024 14.793940011665086 -14.77734375 11.28515625 C-13 10 -13 10 -11 10 C-10.669999999999959 9.009999999999991 -10.340000000000032 8.019999999999982 -10 7 C-8.22265625 5.61328125 -8.22265625 5.61328125 -6.0625 4.3125 C-5.35222656250005 3.875507812500018 -4.641953124999986 3.4385156250000364 -3.91015625 2.98828125 C-2 2 -2 2 0 2 C0 1.3400000000000318 0 0.67999999999995 0 0 Z " fill="#000000" transform="translate(610,533)"/>
<path d="M0 0 C-2.500211049826248 1.66680736655087 -4.1951493418876 2.4518879385182686 -6.9375 3.4375 C-15.910731999382733 7.329327299241299 -22.957872437510787 15.52452100845312 -29 23 C-29.73828125 21.30078125 -29.73828125 21.30078125 -30 19 C-23.621765331287065 9.211295379893102 -12.140886677503772 -0.5646924036048517 0 0 Z " fill="#000000" transform="translate(635,427)"/>
<path d="M0 0 C8.416371716973174 9.039806658971202 11.355745084195178 21.19424503419856 11.25 33.1875 C11.257734374999984 34.076308593750014 11.265468750000025 34.96511718750003 11.2734375 35.880859375 C11.270859374999986 36.73873046875002 11.268281249999973 37.596601562499984 11.265625 38.48046875 C11.263369140625002 39.25285888671874 11.261113281250005 40.02524902343748 11.2587890625 40.821044921875 C10.970307243127024 43.250007410463695 10.208158376497067 44.889922001326454 9 47 C8.974943847656277 46.27820556640626 8.949887695312498 45.556411132812514 8.924072265625 44.812744140625 C8.808486982264924 41.5624650046874 8.685592260460112 38.312503115730806 8.5625 35.0625 C8.523183593749991 33.926191406249984 8.483867187499982 32.78988281249997 8.443359375 31.619140625 C8.401464843749977 30.53955078125 8.359570312500011 29.4599609375 8.31640625 28.34765625 C8.279748535156273 27.34742431640626 8.243090820312489 26.347192382812523 8.205322265625 25.316650390625 C8.253281592076803 23.039308119314512 8.253281592076803 23.039308119314512 7 22 C6.725951047725687 20.692309890777892 6.481270544771178 19.37842939974803 6.25 18.0625 C5.259876545814166 13.302291085645038 3.353947933567042 9.407477451292607 1.0234375 5.1640625 C0 3 0 3 0 0 Z " fill="#000000" transform="translate(418,446)"/>
<path d="M0 0 C-2.63600493803699 2.071146737029096 -4.950486054073508 3.475243027036754 -8 5 C-8.330000000000041 25.45999999999998 -8.659999999999968 45.920000000000016 -9 67 C-9.330000000000041 67 -9.659999999999968 67 -10 67 C-10.115796553715313 58.70733877521991 -10.204664503187246 50.41501466354458 -10.259060859680176 42.121745109558105 C-10.28516726729481 38.27089594981521 -10.32058230979328 34.420599418440815 -10.377197265625 30.570068359375 C-10.431482953154955 26.854750334678045 -10.461412675950896 23.1399641359028 -10.474386215209961 19.424280166625977 C-10.483632585711916 18.006011316565946 -10.50168911736614 16.58777194086207 -10.528650283813477 15.169729232788086 C-10.56488313406328 13.18529977437953 -10.567041867068724 11.200336296552791 -10.567626953125 9.215576171875 C-10.578730010986305 8.085284881591804 -10.58983306884761 6.954993591308607 -10.601272583007813 5.7904510498046875 C-10 3 -10 3 -7.6403045654296875 1.1232452392578125 C-4.85036539536884 -0.06365794290582016 -2.9971141221096786 -0.25689549618084584 0 0 Z " fill="#000000" transform="translate(537,437)"/>
<path d="M0 0 C4.340306461999546 0.8037604559258398 7.711204139195615 2.651326455397225 10.765625 5.84765625 C14.275347953528865 9.228525738451708 18.412846444744673 11.594268679084507 22.515625 14.1953125 C23.335468750000018 14.790859374999968 24.15531249999998 15.38640625000005 25 16 C25 16.659999999999968 25 17.32000000000005 25 18 C25.843046875000027 18.382851562500036 25.843046875000027 18.382851562500036 26.703125 18.7734375 C29.293864817784822 20.15692781085795 31.451078454228195 21.799385831298878 33.75 23.625 C34.54921875000002 24.256640625000045 35.34843749999999 24.888281249999977 36.171875 25.5390625 C36.77515625000001 26.02117187500005 37.37843750000002 26.503281249999986 38 27 C37.670000000000016 27.659999999999968 37.34000000000003 28.32000000000005 37 29 C35.9584375 28.200781249999977 34.916875000000005 27.401562499999955 33.84375 26.578125 C32.395957739821256 25.46858764794615 30.948030703147936 24.359226147806226 29.5 23.25 C28.73985595703124 22.667424316406255 27.979711914062477 22.08484863281251 27.196533203125 21.484619140625 C23.29754368615204 18.501902224646415 19.38850524438368 15.534813906386034 15.44921875 12.60546875 C14.732500000000016 12.072119140624977 14.015781249999975 11.538769531249955 13.27734375 10.9892578125 C11.91357865293736 9.976630364260473 10.547780458690909 8.966733625486086 9.1796875 7.9599609375 C5.866959344099655 5.499420097066832 2.8286817580023467 3.0281857610856378 0 0 Z " fill="#000000" transform="translate(413,535)"/>
<path d="M0 0 C0.6599999999999682 0 1.32000000000005 0 2 0 C2 0.6599999999999682 2 1.32000000000005 2 2 C1.3400000000000318 2.659999999999968 0.67999999999995 3.32000000000005 0 4 C10.254891940808875 11.45007597860888 20.53615784526778 18.845394145085947 31 26 C30.00999999999999 26.33000000000004 29.019999999999982 26.659999999999968 28 27 C26.01171875 25.91796875 26.01171875 25.91796875 23.6875 24.1875 C22.810937500000023 23.546835937499964 21.934375000000045 22.90617187500004 21.03125 22.24609375 C20.03093750000005 21.5048828125 19.030624999999986 20.763671875 18 20 C16.18411882827911 18.68611493170863 14.3632857094276 17.379424106004308 12.540283203125 16.075439453125 C11.328355734932302 15.208453786394443 10.118466529823081 14.338609992221905 8.910888671875 13.465576171875 C6.372872600395226 11.639985664319397 3.855635800545997 9.917365301132236 1.140625 8.36328125 C-1 7 -1 7 -1.9375 4.4375 C-1.9581249999999955 3.63312499999995 -1.978749999999991 2.8287500000000136 -2 2 C-1.3400000000000318 1.3400000000000318 -0.67999999999995 0.67999999999995 0 0 Z " fill="#000000" transform="translate(573,560)"/>
<path d="M0 0 C0.3299999999999841 0 0.660000000000025 0 1 0 C1 11.549999999999955 1 23.100000000000023 1 35 C-8.507014028056119 38.56513026052107 -8.507014028056119 38.56513026052107 -12 38 C-14.23828125 36.7578125 -14.23828125 36.7578125 -16.3125 35.125 C-17.009882812499995 34.59132812500002 -17.70726562499999 34.057656250000036 -18.42578125 33.5078125 C-18.94527343750002 33.01023437499998 -19.464765624999984 32.512656249999964 -20 32 C-20 31.340000000000032 -20 30.67999999999995 -20 30 C-16.354468283045207 31.280862495146266 -14.833289872413786 32.16671012758627 -12 35 C-6.060000000000002 34.504999999999995 -6.060000000000002 34.504999999999995 0 34 C0 22.779999999999973 0 11.559999999999945 0 0 Z " fill="#000000" transform="translate(495,511)"/>
<path d="M0 0 C0.9900000000000091 0.3300000000000409 1.9800000000000182 0.6599999999999682 3 1 C-10.182519792867993 10.912437363629465 -21.97169459861709 12.761640700171256 -38 12 C-38 11.669999999999959 -38 11.340000000000032 -38 11 C-36.602011718749964 10.961328125000023 -36.602011718749964 10.961328125000023 -35.17578125 10.921875 C-22.864283476791115 10.374144057612511 -12.380017852576316 8.179314573279157 -2.0234375 1.07421875 C-1.355703124999991 0.7197265625 -0.6879687499999818 0.365234375 0 0 Z " fill="#000000" transform="translate(684,688)"/>
<path d="M0 0 C0.6599999999999682 0 1.32000000000005 0 2 0 C3.559414851660904 1.9477633378853056 4.97860041516401 3.8769591492053905 6.375 5.9375 C6.77912109374995 6.531435546875002 7.183242187500014 7.1253710937500045 7.599609375 7.7373046875 C12.685961110589005 15.358588608978152 15.414938179822684 21.785276332206536 16 31 C13.630625243700706 28.14627791782732 12.505079544551563 25.838895805054392 11.625 22.25 C10.3987256286415 17.810493318664896 8.64010246657051 14.43837487164393 5.98828125 10.69140625 C5 9 5 9 5 6 C4.340000000000032 6 3.67999999999995 6 3 6 C0 2.538461538461547 0 2.538461538461547 0 0 Z " fill="#000000" transform="translate(552,347)"/>
<path d="M0 0 C11.579517869094275 1.5044921026998281 20.06167031316386 8.865662172748102 28 17 C28.659999999999968 17.99000000000001 29.32000000000005 18.980000000000018 30 20 C29.66999999999996 20.99000000000001 29.340000000000032 21.980000000000018 29 23 C28.671289062500023 22.503710937500045 28.342578125000045 22.007421874999977 28.00390625 21.49609375 C20.793611743776523 11.198464468754082 11.097983971324197 6.193793352156035 0 1 C0 0.6699999999999591 0 0.34000000000003183 0 0 Z " fill="#000000" transform="translate(668,591)"/>
<path d="M0 0 C0.6599999999999682 0.3300000000000409 1.32000000000005 0.6599999999999682 2 1 C-5.608919917860703 8.064083676828659 -13.762055053401696 15.13956353568517 -23 20 C-25.3125 19.1875 -25.3125 19.1875 -27 18 C-26.141484375000005 17.767968750000023 -25.28296875000001 17.535937500000045 -24.3984375 17.296875 C-20.589556601537538 15.843371024954536 -17.753238209081246 13.78727066126828 -14.625 11.25 C-13.48856844285433 10.351199257937992 -12.351849968697366 9.452761169946598 -11.21484375 8.5546875 C-10.668120117187527 8.118662109375009 -10.121396484375055 7.682636718750018 -9.55810546875 7.2333984375 C-6.424561697590093 4.752880867475028 -3.2044248548751284 2.3876106761814526 0 0 Z " fill="#000000" transform="translate(562,529)"/>
<path d="M0 0 C-3.387750887658285 7.922396607075939 -11.374042150661012 12.586839386985616 -18.8359375 16.1875 C-21 17 -21 17 -24 17 C-24 16.340000000000032 -24 15.67999999999995 -24 15 C-22.39967863182153 14.15930584786122 -20.794588285149757 13.327684953725225 -19.1875 12.5 C-18.29417968749999 12.035937500000045 -17.400859374999982 11.571874999999977 -16.48046875 11.09375 C-14 10 -14 10 -11 10 C-10.669999999999959 9.009999999999991 -10.340000000000032 8.019999999999982 -10 7 C-9.009999999999991 7 -8.019999999999982 7 -7 7 C-6.731874999999945 6.401875000000018 -6.4637500000000045 5.803750000000036 -6.1875 5.1875 C-3.3714285714286234 0 -3.3714285714286234 0 0 0 Z " fill="#000000" transform="translate(694,515)"/>
<path d="M0 0 C3.024754161721546 5.646207768546901 3.182422040692927 10.588486377879008 3.1875 16.875 C3.1997460937499795 17.665195312500032 3.211992187500016 18.45539062499995 3.224609375 19.26953125 C3.236209502019733 23.917315475901773 2.7787471147225915 27.62695373376505 1 32 C0.6700000000000159 32 0.339999999999975 32 0 32 C-0.09059034747150463 27.178580395684094 -0.13051628615448863 22.46753540962959 0.5625 17.6875 C1.3286902136393905 11.770808905784634 0.5935433050296979 5.908038743910993 0 0 Z " fill="#000000" transform="translate(427,627)"/>
<path d="M0 0 C0.9900000000000091 0.3300000000000409 1.9800000000000182 0.6599999999999682 3 1 C0.29260805708520365 2.9179990905154227 -2.4160837071897845 4.834154595545442 -5.125 6.75 C-5.885546874999989 7.288828125000009 -6.646093749999977 7.827656250000018 -7.4296875 8.3828125 C-11.58116419442365 11.317477059851171 -15.753181851402928 14.204969525204433 -20 17 C-19.62519923820804 14.443163581861995 -19.26988132906996 13.253031298118685 -17.357666015625 11.460205078125 C-16.663425292968725 10.984782714843732 -15.969184570312507 10.509360351562464 -15.25390625 10.01953125 C-14.499160156250014 9.495527343750041 -13.744414062500027 8.971523437499968 -12.966796875 8.431640625 C-12.17337890624998 7.897324218749986 -11.379960937500016 7.363007812499973 -10.5625 6.8125 C-9.77294921875 6.266582031249982 -8.9833984375 5.720664062499964 -8.169921875 5.158203125 C-2.4605654761904816 1.230282738095184 -2.4605654761904816 1.230282738095184 0 0 Z " fill="#000000" transform="translate(469,591)"/>
<path d="M0 0 C0.75 1.5625 0.75 1.5625 1 4 C0.08179179099187195 5.564354726458191 -0.8453840928036698 7.124118153351105 -1.81640625 8.65625 C-3.951554885061114 12.884267099130966 -4.9055920432628 17.513687773139168 -6.0703125 22.0859375 C-6.377109374999975 23.047578124999973 -6.683906250000007 24.009218749999945 -7 25 C-7.660000000000025 25.33000000000004 -8.319999999999993 25.659999999999968 -9 26 C-8.677393007153285 16.644397207446104 -5.185268092366869 7.777902138550303 0 0 Z " fill="#000000" transform="translate(325,612)"/>
<path d="M0 0 C4.322858124432912 -0.3881439513135092 6.181530507918353 0.4474257186861337 9.5 3.1875 C10.276015625000014 3.8255859375000227 11.052031250000027 4.463671874999989 11.8515625 5.12109375 C14.354643339880965 7.310151720877741 16.71678349448422 9.58247664121859 19 12 C19.598124999999982 12.598124999999982 20.19625000000002 13.19625000000002 20.8125 13.8125 C21.204375000000027 14.204375000000027 21.596249999999998 14.596249999999998 22 15 C21.670000000000016 15.990000000000009 21.339999999999975 16.980000000000018 21 18 C20.670000000000016 17.00999999999999 20.339999999999975 16.019999999999982 20 15 C19.339999999999975 15 18.680000000000007 15 18 15 C16.80859375 13.6796875 16.80859375 13.6796875 15.4375 11.875 C11.900226952564594 7.579739870971309 7.700291320603128 4.891798279152056 3 2 C2.009999999999991 1.339999999999975 1.0199999999999818 0.6800000000000068 0 0 Z " fill="#000000" transform="translate(396,430)"/>
<path d="M0 0 C0.3300000000000409 0 0.6599999999999682 0 1 0 C0.47462276229668987 5.030207595031243 -0.10594786485069108 10.018852389882454 -1 15 C-1.6599999999999682 15 -2.32000000000005 15 -3 15 C-3 19.620000000000005 -3 24.24000000000001 -3 29 C-3.330000000000041 29 -3.659999999999968 29 -4 29 C-4.618995633187751 9.237991266375502 -4.618995633187751 9.237991266375502 0 0 Z " fill="#000000" transform="translate(598,624)"/>
<path d="M0 0 C-2.5958054313942966 1.679638808549214 -4.926096466244758 2.975901021601544 -7.875 3.9375 C-10.507680738520378 4.832611451096909 -12.306438906256346 5.740876411595821 -14.625 7.1875 C-18 9 -18 9 -20.2109375 8.61328125 C-20.801328124999998 8.410898437500009 -21.391718749999995 8.208515625000018 -22 8 C-20.129287001323064 6.86788566099483 -18.253218085217895 5.7446190532321 -16.375 4.625 C-15.330859374999989 3.998515624999982 -14.286718749999977 3.3720312500000205 -13.2109375 2.7265625 C-4.745738636363626 -1.825284090909065 -4.745738636363626 -1.825284090909065 0 0 Z " fill="#000000" transform="translate(500,332)"/>
<path d="M0 0 C0.3299999999999841 0 0.660000000000025 0 1 0 C0.46938237486529033 5.200052726320223 -0.8501469456361406 9.25240783827985 -3 14 C-3.2475000000000023 15.175625000000025 -3.2475000000000023 15.175625000000025 -3.5 16.375 C-3.6650000000000205 16.911249999999995 -3.829999999999984 17.44749999999999 -4 18 C-4.990000000000009 18.329999999999984 -5.980000000000018 18.660000000000025 -7 19 C-6.6742236923810765 11.832921232383853 -3.345563717666721 6.230728758590317 0 0 Z " fill="#000000" transform="translate(463,356)"/>
<path d="M0 0 C0.3299999999999841 0.660000000000025 0.660000000000025 1.3199999999999932 1 2 C0.08105990283939946 4.3994546981415965 -0.9151633655514502 6.674765251446161 -2 9 C-2.8963677646497104 10.97892467922668 -3.7921792436514465 12.958101404767831 -4.6875 14.9375 C-5.457590745791947 16.62533900921369 -6.228169645159198 18.312955785664144 -7 20 C-7.329999999999984 20 -7.660000000000025 20 -8 20 C-9.203708591137854 12.433831712847791 -5.039243253484358 7.141199574841949 -1 1 C-0.6700000000000159 0.6700000000000159 -0.339999999999975 0.339999999999975 0 0 Z " fill="#000000" transform="translate(328,444)"/>
<path d="M0 0 C3.6040148108892254 -0.08701038604971245 7.207760123606988 -0.14039387840432482 10.8125 -0.1875 C12.348740234374986 -0.22520507812498636 12.348740234374986 -0.22520507812498636 13.916015625 -0.263671875 C15.390380859375 -0.27817382812497726 15.390380859375 -0.27817382812497726 16.89453125 -0.29296875 C18.253485107421852 -0.31653442382810226 18.253485107421852 -0.31653442382810226 19.639892578125 -0.340576171875 C22.424442061930677 0.061249268272831614 23.27599534563126 0.8368856217978191 25 3 C24.082187500000032 2.9162109375000114 23.16437499999995 2.8324218750000227 22.21875 2.74609375 C15.587908167883711 2.1958453206542003 9.56061167302471 1.9065647211625674 3 3 C1.6800000000000068 3 0.36000000000001364 3 -1 3 C-0.6700000000000159 2.009999999999991 -0.339999999999975 1.0199999999999818 0 0 Z " fill="#000000" transform="translate(500,330)"/>
<path d="M0 0 C1.3199999999999932 0.3299999999999841 2.6399999999999864 0.660000000000025 4 1 C0.040000000000020464 4.9599999999999795 -3.920000000000016 8.920000000000016 -8 13 C-8.329999999999984 12.339999999999975 -8.660000000000025 11.680000000000007 -9 11 C-7.039157884151564 6.84762846055628 -3.8984919095432247 2.535449505962106 0 0 Z " fill="#000000" transform="translate(337,435)"/>
<path d="M0 0 C0.660000000000025 0 1.3199999999999932 0 2 0 C0.7514029470043511 7.616442023273407 -2.0700403093516115 13.388275363217417 -6 20 C-6.6796875 18.33984375 -6.6796875 18.33984375 -7 16 C-5.8203125 13.37890625 -5.8203125 13.37890625 -4.125 10.5625 C-1.9926235155757013 6.996968157439369 -0.5848902948994237 4.13172503191754 0 0 Z " fill="#000000" transform="translate(425,659)"/>
<path d="M0 0 C-2 2 -2 2 -5.0625 2.375 C-9.238178240829313 3.0378060699729303 -12.249713553192919 4.36436526298246 -15.984375 6.2578125 C-18 7 -18 7 -21 6 C-5.46875 -2.1875 -5.46875 -2.1875 0 0 Z " fill="#000000" transform="translate(365,589)"/>
</svg>
